<svg width="952" height="167" viewBox="0 0 952 167" fill="none" xmlns="http://www.w3.org/2000/svg">
<path d="M391.417 123.082V121.74L393.831 120.936C395.62 120.31 396.827 119.46 397.453 118.388C398.078 117.315 398.391 115.884 398.391 114.096C398.481 108.731 398.526 103.322 398.526 97.8677C398.526 92.4136 398.526 86.9595 398.526 81.5054V76.1408C398.526 70.7761 398.526 65.4114 398.526 60.0468C398.526 54.5927 398.481 49.1833 398.391 43.8186C398.391 42.0304 398.123 40.5998 397.587 39.5269C397.14 38.454 396.067 37.6046 394.368 36.9787L391.417 35.9057V34.5646H456.33L457.269 56.828H455.927L448.283 42.7457C447.389 41.0469 446.361 39.7057 445.198 38.7222C444.036 37.7387 442.426 37.2469 440.37 37.2469H418.777C418.688 43.5951 418.643 50.0774 418.643 56.6938C418.643 63.3103 418.643 69.882 418.643 76.409H432.591C434.648 76.409 436.168 75.9619 437.151 75.0678C438.135 74.1737 439.073 72.8773 439.968 71.1784L442.784 66.082H444.125V89.5524H442.784L439.833 84.456C438.939 82.8466 438.001 81.5501 437.017 80.5666C436.123 79.5831 434.648 79.0913 432.591 79.0913H418.643C418.643 85.3501 418.643 91.3407 418.643 97.063C418.643 102.696 418.688 108.239 418.777 113.693C418.777 117.18 420.476 119.46 423.874 120.533L427.897 121.74V123.082H391.417Z" fill="#305677"/>
<path d="M462.932 123.082V121.74L464.541 121.204C467.76 120.131 469.37 117.896 469.37 114.498V42.7457C469.37 40.9575 469.012 39.6163 468.297 38.7222C467.581 37.7387 466.33 37.0234 464.541 36.5763L462.798 36.174V34.8328L487.341 29.0658L488.951 30.2728L488.414 49.0492V94.9171C488.414 98.2253 488.414 101.534 488.414 104.842C488.504 108.061 488.548 111.279 488.548 114.498C488.548 116.286 488.906 117.762 489.621 118.924C490.336 119.997 491.544 120.802 493.242 121.338L494.986 121.74V123.082H462.932Z" fill="#305677"/>
<path d="M524.656 125.093C521.169 125.093 517.95 124.423 515 123.082C512.138 121.74 509.858 119.595 508.16 116.644C506.55 113.604 505.79 109.625 505.88 104.708L506.282 70.2396C506.282 68.1832 505.924 66.7079 505.209 65.8138C504.494 64.9197 503.376 64.2938 501.856 63.9361L500.247 63.3997V62.0585L524.254 57.3644L525.595 58.7056L524.924 77.7502V110.072C524.924 112.933 525.729 115.035 527.338 116.376C529.037 117.717 531.138 118.388 533.642 118.388C536.145 118.388 538.381 118.03 540.348 117.315C542.315 116.599 544.282 115.526 546.249 114.096L546.785 70.3737C546.785 68.3173 546.472 66.8867 545.846 66.082C545.221 65.1879 544.058 64.562 542.359 64.2044L541.018 63.802V62.4609L564.489 57.3644L565.83 58.7056L565.427 77.7502V114.096C565.427 116.063 565.696 117.583 566.232 118.656C566.769 119.729 567.931 120.623 569.719 121.338L571.06 121.74V123.082L547.59 124.423L546.383 116.51C543.432 118.924 540.214 120.98 536.727 122.679C533.329 124.289 529.305 125.093 524.656 125.093Z" fill="#305677"/>
<path d="M593.381 49.5857C590.341 49.5857 587.793 48.6468 585.737 46.7692C583.68 44.8022 582.652 42.3434 582.652 39.3928C582.652 36.3528 583.68 33.894 585.737 32.0164C587.793 30.1387 590.341 29.1999 593.381 29.1999C596.421 29.1999 598.97 30.1387 601.026 32.0164C603.172 33.894 604.245 36.3528 604.245 39.3928C604.245 42.3434 603.172 44.8022 601.026 46.7692C598.97 48.6468 596.421 49.5857 593.381 49.5857ZM573.532 155.27C568.436 155.27 564.77 154.376 562.535 152.587C560.299 150.888 559.182 148.653 559.182 145.881C559.182 143.378 560.076 141.366 561.864 139.846C563.652 138.326 565.753 137.566 568.167 137.566C570.582 137.566 572.772 138.147 574.739 139.31C576.706 140.561 578.226 142.484 579.299 145.077L580.64 148.027C581.266 149.011 581.981 149.324 582.786 148.966C583.68 148.698 584.127 147.312 584.127 144.809V72.6537C584.127 70.5973 583.636 69.122 582.652 68.2279C581.758 67.2444 580.417 66.5738 578.629 66.2161L576.617 65.9479V64.6067L601.697 56.6938L603.306 58.035L602.904 77.0796V114.364C602.904 120.176 602.635 125.049 602.099 128.983C601.652 132.917 600.803 136.225 599.551 138.907C598.388 141.679 596.69 144.227 594.454 146.552C591.325 149.681 587.927 151.917 584.261 153.258C580.596 154.599 577.019 155.27 573.532 155.27Z" fill="#305677"/>
<path d="M647.866 125.093C641.071 125.093 635.17 123.707 630.163 120.936C625.156 118.075 621.266 114.051 618.495 108.865C615.812 103.679 614.471 97.5994 614.471 90.6254C614.471 83.6513 615.902 77.616 618.763 72.5196C621.714 67.4232 625.692 63.4891 630.699 60.7173C635.796 57.9456 641.518 56.5597 647.866 56.5597C654.214 56.5597 659.892 57.9456 664.899 60.7173C669.906 63.3997 673.84 67.2891 676.701 72.3855C679.652 77.4819 681.127 83.5619 681.127 90.6254C681.127 97.6888 679.741 103.814 676.97 108.999C674.287 114.096 670.443 118.075 665.436 120.936C660.518 123.707 654.662 125.093 647.866 125.093ZM647.866 122.411C650.996 122.411 653.499 121.517 655.377 119.729C657.254 117.94 658.596 114.766 659.4 110.206C660.294 105.646 660.741 99.2088 660.741 90.8936C660.741 82.4889 660.294 76.0066 659.4 71.4467C658.596 66.8867 657.254 63.7126 655.377 61.9244C653.499 60.1362 650.996 59.2421 647.866 59.2421C644.737 59.2421 642.189 60.1362 640.222 61.9244C638.344 63.7126 636.958 66.8867 636.064 71.4467C635.259 76.0066 634.857 82.4889 634.857 90.8936C634.857 99.2088 635.259 105.646 636.064 110.206C636.958 114.766 638.344 117.94 640.222 119.729C642.189 121.517 644.737 122.411 647.866 122.411Z" fill="#305677"/>
<path d="M716.493 123.082V121.74L719.176 120.668C720.964 120.042 722.126 119.192 722.663 118.119C723.288 117.046 723.601 115.616 723.601 113.828V43.8186C723.601 42.0304 723.333 40.5998 722.797 39.5269C722.26 38.454 721.053 37.6046 719.176 36.9787L716.493 35.9057V34.5646H750.961V35.9057L748.279 36.9787C746.491 37.6046 745.284 38.454 744.658 39.5269C744.121 40.5998 743.853 42.0304 743.853 43.8186V113.828C743.853 115.616 744.121 117.046 744.658 118.119C745.284 119.103 746.491 119.952 748.279 120.668L750.961 121.74V123.082H716.493Z" fill="#305677"/>
<path d="M758.576 123.082V121.74L763.002 120.399C764.612 119.952 765.774 119.103 766.489 117.851C767.205 116.51 767.562 114.945 767.562 113.157V48.6468C766.579 46.501 765.774 44.8916 765.148 43.8186C764.612 42.7457 763.986 41.8516 763.271 41.1363C762.555 40.3316 761.572 39.3481 760.32 38.1857L758.04 35.9057V34.5646H781.779L826.305 95.3195V44.7574C826.305 42.9692 825.992 41.3598 825.367 39.9293C824.83 38.4987 823.668 37.5599 821.88 37.1128L817.454 35.9057V34.5646H836.632V35.9057L833.011 37.1128C831.402 37.6493 830.418 38.5881 830.061 39.9293C829.703 41.2704 829.524 42.8351 829.524 44.6233V123.484H822.014L770.781 53.0727V113.157C770.781 114.945 771.049 116.465 771.586 117.717C772.122 118.969 773.24 119.863 774.939 120.399L778.962 121.74V123.082H758.576Z" fill="#305677"/>
<path d="M887.971 125.496C879.298 125.496 871.43 123.752 864.366 120.265C857.392 116.689 851.849 111.413 847.736 104.439C843.623 97.4653 841.566 88.9266 841.566 78.8231C841.566 71.1337 842.818 64.3832 845.322 58.5715C847.825 52.7597 851.223 47.8868 855.515 43.9527C859.896 40.0187 864.903 37.0681 870.536 35.101C876.258 33.134 882.293 32.1505 888.641 32.1505C893.738 32.1505 898.432 32.7317 902.724 33.894C907.015 35.0563 911.039 36.6657 914.794 38.7222L915.331 55.2186H913.989L907.284 44.4892C906.39 42.7904 905.406 41.2704 904.333 39.9293C903.26 38.4987 901.919 37.4257 900.31 36.7104C898.968 36.0846 897.627 35.6375 896.286 35.3693C895.034 35.0116 893.425 34.8328 891.458 34.8328C886.272 34.8328 881.533 36.2187 877.241 38.9904C873.039 41.7622 869.642 46.3669 867.049 52.8044C864.545 59.1526 863.293 67.8702 863.293 78.9572C863.293 89.9548 864.5 98.6724 866.914 105.11C869.329 111.458 872.592 116.018 876.705 118.79C880.907 121.472 885.601 122.813 890.787 122.813C893.648 122.813 895.928 122.635 897.627 122.277C899.326 121.83 901.025 121.204 902.724 120.399C904.422 119.684 905.719 118.656 906.613 117.315C907.507 115.884 908.312 114.364 909.027 112.755L914.928 99.6112H916.269L915.867 118.79C912.112 120.757 907.909 122.366 903.26 123.618C898.611 124.87 893.514 125.496 887.971 125.496Z" fill="#305677"/>
<path d="M939.812 125.093C936.593 125.093 933.866 123.976 931.631 121.74C929.396 119.505 928.278 116.823 928.278 113.693C928.278 110.564 929.396 107.837 931.631 105.512C933.866 103.188 936.593 102.025 939.812 102.025C943.031 102.025 945.758 103.188 947.993 105.512C950.229 107.837 951.346 110.564 951.346 113.693C951.346 116.823 950.229 119.505 947.993 121.74C945.758 123.976 943.031 125.093 939.812 125.093Z" fill="#305677"/>
<path d="M367.59 13.1767C289.94 233.607 100.73 -64.1933 0 42.3767C84.78 22.7067 320.03 296.387 367.59 13.1767Z" fill="url(#paint0_linear_136_5)"/>
<path d="M0 68.2867C58.47 29.9667 159.11 166.567 251.82 150.397C132.48 204.047 73.77 77.7667 0 68.2867Z" fill="url(#paint1_linear_136_5)"/>
<path d="M98 16.1967C175.74 7.80672 278.1 163.627 355.83 4.78672C257.29 131.787 176.29 -53.4133 98 16.1967Z" fill="url(#paint2_linear_136_5)"/>
<defs>
<linearGradient id="paint0_linear_136_5" x1="0" y1="81.8116" x2="367.593" y2="81.8116" gradientUnits="userSpaceOnUse">
<stop offset="0.00710047" stop-color="#9BEAA1"/>
<stop offset="0.5219" stop-color="#77C99D"/>
<stop offset="0.9972" stop-color="#305677"/>
</linearGradient>
<linearGradient id="paint1_linear_136_5" x1="0" y1="81.8145" x2="367.588" y2="81.8145" gradientUnits="userSpaceOnUse">
<stop offset="0.00710047" stop-color="#9BEAA1"/>
<stop offset="0.5219" stop-color="#77C99D"/>
<stop offset="0.9972" stop-color="#305677"/>
</linearGradient>
<linearGradient id="paint2_linear_136_5" x1="97.9987" y1="38.2476" x2="355.831" y2="38.2476" gradientUnits="userSpaceOnUse">
<stop offset="0.00710047" stop-color="#9BEAA1"/>
<stop offset="0.5219" stop-color="#77C99D"/>
<stop offset="0.9972" stop-color="#305677"/>
</linearGradient>
</defs>
</svg>
