<svg width="468" height="82" viewBox="0 0 468 82" fill="none" xmlns="http://www.w3.org/2000/svg">
<path d="M192.552 60.4892V59.8301L193.739 59.4346C194.619 59.127 195.213 58.7096 195.521 58.1823C195.829 57.655 195.982 56.9519 195.982 56.0731C196.026 53.4366 196.048 50.7781 196.048 48.0977C196.048 45.4172 196.048 42.7368 196.048 40.0563V37.4198C196.048 34.7833 196.048 32.1468 196.048 29.5103C196.048 26.8299 196.026 24.1714 195.982 21.5349C195.982 20.6561 195.851 19.953 195.587 19.4257C195.367 18.8984 194.839 18.481 194.003 18.1734L192.552 17.6461V16.987H224.484L224.946 27.9284H224.286L220.526 21.0076C220.086 20.1727 219.58 19.5136 219.008 19.0302C218.437 18.5469 217.645 18.3052 216.633 18.3052H206.011C205.967 21.4251 205.945 24.6108 205.945 27.8625C205.945 31.1142 205.945 34.3439 205.945 37.5517H212.807C213.818 37.5517 214.566 37.3319 215.05 36.8925C215.534 36.4531 215.995 35.816 216.435 34.9811L217.821 32.4764H218.481V44.0111H217.821L216.369 41.5064C215.929 40.7155 215.468 40.0783 214.984 39.5949C214.544 39.1116 213.818 38.8699 212.807 38.8699H205.945C205.945 41.9458 205.945 44.8899 205.945 47.7022C205.945 50.4705 205.967 53.1949 206.011 55.8753C206.011 57.589 206.847 58.7096 208.518 59.2369L210.497 59.8301V60.4892H192.552Z" fill="white"/>
<path d="M227.732 60.4892V59.8301L228.524 59.5664C230.107 59.0391 230.899 57.9406 230.899 56.2708V21.0076C230.899 20.1288 230.723 19.4697 230.371 19.0302C230.019 18.5469 229.404 18.1954 228.524 17.9756L227.666 17.7779V17.1188L239.74 14.2845L240.532 14.8778L240.268 24.1055V46.6476C240.268 48.2734 240.268 49.8993 240.268 51.5251C240.312 53.107 240.334 54.6889 240.334 56.2708C240.334 57.1496 240.51 57.8747 240.862 58.4459C241.213 58.9732 241.807 59.3687 242.643 59.6323L243.501 59.8301V60.4892H227.732Z" fill="white"/>
<path d="M258.096 61.4779C256.381 61.4779 254.798 61.1483 253.346 60.4892C251.939 59.8301 250.817 58.7755 249.981 57.3254C249.19 55.8314 248.816 53.876 248.86 51.4592L249.058 34.5197C249.058 33.509 248.882 32.784 248.53 32.3446C248.178 31.9052 247.628 31.5976 246.88 31.4218L246.089 31.1581V30.499L257.898 28.1921L258.558 28.8512L258.228 38.2108V54.0957C258.228 55.5018 258.624 56.5344 259.416 57.1936C260.252 57.8527 261.285 58.1823 262.517 58.1823C263.748 58.1823 264.848 58.0065 265.816 57.655C266.783 57.3034 267.751 56.7761 268.719 56.0731L268.983 34.5856C268.983 33.5749 268.829 32.8719 268.521 32.4764C268.213 32.037 267.641 31.7294 266.805 31.5536L266.146 31.3559V30.6968L277.691 28.1921L278.351 28.8512L278.153 38.2108V56.0731C278.153 57.0398 278.285 57.7868 278.549 58.3141C278.813 58.8414 279.385 59.2808 280.265 59.6323L280.924 59.8301V60.4892L269.378 61.1483L268.785 57.2595C267.333 58.4459 265.75 59.4566 264.034 60.2915C262.363 61.0824 260.384 61.4779 258.096 61.4779Z" fill="white"/>
<path d="M291.905 24.3692C290.409 24.3692 289.156 23.9078 288.144 22.985C287.132 22.0183 286.627 20.8099 286.627 19.3598C286.627 17.8658 287.132 16.6574 288.144 15.7346C289.156 14.8118 290.409 14.3505 291.905 14.3505C293.4 14.3505 294.654 14.8118 295.665 15.7346C296.721 16.6574 297.249 17.8658 297.249 19.3598C297.249 20.8099 296.721 22.0183 295.665 22.985C294.654 23.9078 293.4 24.3692 291.905 24.3692ZM282.14 76.3082C279.633 76.3082 277.83 75.8688 276.73 74.9899C275.631 74.1551 275.081 73.0565 275.081 71.6943C275.081 70.464 275.521 69.4753 276.4 68.7283C277.28 67.9812 278.314 67.6077 279.501 67.6077C280.689 67.6077 281.766 67.8934 282.734 68.4646C283.702 69.0798 284.449 70.0245 284.977 71.2988L285.637 72.7489C285.945 73.2323 286.297 73.3861 286.693 73.2103C287.132 73.0785 287.352 72.3974 287.352 71.167V35.7061C287.352 34.6954 287.11 33.9704 286.627 33.531C286.187 33.0476 285.527 32.7181 284.647 32.5423L283.658 32.4105V31.7514L295.995 27.8625L296.787 28.5216L296.589 37.8812V56.2049C296.589 59.0611 296.457 61.4559 296.193 63.3893C295.973 65.3228 295.555 66.9486 294.94 68.2669C294.368 69.6291 293.532 70.8814 292.433 72.0239C290.893 73.5618 289.222 74.6604 287.418 75.3195C285.615 75.9786 283.856 76.3082 282.14 76.3082Z" fill="white"/>
<path d="M318.708 61.4779C315.365 61.4779 312.462 60.7968 309.999 59.4346C307.536 58.0285 305.622 56.0511 304.259 53.5025C302.939 50.9539 302.28 47.9658 302.28 44.5384C302.28 41.1109 302.983 38.1449 304.391 35.6402C305.842 33.1355 307.8 31.2021 310.263 29.8399C312.77 28.4777 315.585 27.7966 318.708 27.7966C321.831 27.7966 324.624 28.4777 327.087 29.8399C329.55 31.1581 331.485 33.0696 332.893 35.5743C334.344 38.079 335.07 41.067 335.07 44.5384C335.07 48.0098 334.388 51.0198 333.025 53.5684C331.705 56.0731 329.814 58.0285 327.351 59.4346C324.932 60.7968 322.051 61.4779 318.708 61.4779ZM318.708 60.1596C320.247 60.1596 321.479 59.7202 322.402 58.8414C323.326 57.9626 323.986 56.4026 324.382 54.1616C324.822 51.9206 325.042 48.7568 325.042 44.6702C325.042 40.5397 324.822 37.3539 324.382 35.1129C323.986 32.8719 323.326 31.3119 322.402 30.4331C321.479 29.5543 320.247 29.1149 318.708 29.1149C317.168 29.1149 315.915 29.5543 314.947 30.4331C314.023 31.3119 313.342 32.8719 312.902 35.1129C312.506 37.3539 312.308 40.5397 312.308 44.6702C312.308 48.7568 312.506 51.9206 312.902 54.1616C313.342 56.4026 314.023 57.9626 314.947 58.8414C315.915 59.7202 317.168 60.1596 318.708 60.1596Z" fill="white"/>
<path d="M352.468 60.4892V59.8301L353.787 59.3028C354.667 58.9952 355.239 58.5777 355.503 58.0504C355.811 57.5231 355.964 56.8201 355.964 55.9412V21.5349C355.964 20.6561 355.833 19.953 355.569 19.4257C355.305 18.8984 354.711 18.481 353.787 18.1734L352.468 17.6461V16.987H369.424V17.6461L368.104 18.1734C367.224 18.481 366.631 18.8984 366.323 19.4257C366.059 19.953 365.927 20.6561 365.927 21.5349V55.9412C365.927 56.8201 366.059 57.5231 366.323 58.0504C366.631 58.5338 367.224 58.9512 368.104 59.3028L369.424 59.8301V60.4892H352.468Z" fill="white"/>
<path d="M373.17 60.4892V59.8301L375.347 59.1709C376.139 58.9512 376.711 58.5338 377.063 57.9186C377.414 57.2595 377.59 56.4905 377.59 55.6117V23.9078C377.107 22.8532 376.711 22.0622 376.403 21.5349C376.139 21.0076 375.831 20.5682 375.479 20.2167C375.127 19.8212 374.643 19.3378 374.028 18.7666L372.906 17.6461V16.987H384.584L406.488 46.8453V21.9963C406.488 21.1175 406.334 20.3265 406.026 19.6235C405.762 18.9204 405.191 18.459 404.311 18.2393L402.134 17.6461V16.987H411.568V17.6461L409.787 18.2393C408.995 18.5029 408.511 18.9643 408.335 19.6235C408.16 20.2826 408.072 21.0516 408.072 21.9304V60.6869H404.377L379.174 26.0829V55.6117C379.174 56.4905 379.306 57.2375 379.57 57.8527C379.834 58.4679 380.383 58.9073 381.219 59.1709L383.198 59.8301V60.4892H373.17Z" fill="white"/>
<path d="M436.823 61.6756C432.557 61.6756 428.686 60.8188 425.212 59.105C421.781 57.3474 419.054 54.7548 417.03 51.3274C415.007 47.8999 413.996 43.7035 413.996 38.7381C413.996 34.9591 414.611 31.6415 415.843 28.7853C417.074 25.9291 418.746 23.5343 420.857 21.6008C423.012 19.6674 425.475 18.2173 428.246 17.2506C431.061 16.2839 434.03 15.8005 437.153 15.8005C439.66 15.8005 441.97 16.0862 444.081 16.6574C446.192 17.2286 448.171 18.0196 450.019 19.0302L450.283 27.1375H449.623L446.324 21.8645C445.884 21.0296 445.4 20.2826 444.873 19.6235C444.345 18.9204 443.685 18.3931 442.893 18.0416C442.234 17.734 441.574 17.5143 440.914 17.3824C440.298 17.2067 439.507 17.1188 438.539 17.1188C435.988 17.1188 433.657 17.7999 431.545 19.1621C429.478 20.5243 427.807 22.7873 426.531 25.9511C425.3 29.0709 424.684 33.3552 424.684 38.804C424.684 44.2088 425.278 48.4931 426.465 51.6569C427.653 54.7768 429.258 57.0178 431.281 58.38C433.349 59.6982 435.658 60.3574 438.209 60.3574C439.616 60.3574 440.738 60.2695 441.574 60.0937C442.409 59.874 443.245 59.5664 444.081 59.1709C444.917 58.8194 445.554 58.3141 445.994 57.655C446.434 56.9519 446.83 56.2049 447.182 55.4139L450.085 48.9545H450.745L450.547 58.38C448.699 59.3467 446.632 60.1377 444.345 60.7528C442.058 61.368 439.55 61.6756 436.823 61.6756Z" fill="white"/>
<path d="M462.326 61.4779C460.743 61.4779 459.401 60.9286 458.301 59.8301C457.202 58.7315 456.652 57.4133 456.652 55.8753C456.652 54.3374 457.202 52.9971 458.301 51.8547C459.401 50.7122 460.743 50.1409 462.326 50.1409C463.909 50.1409 465.251 50.7122 466.351 51.8547C467.45 52.9971 468 54.3374 468 55.8753C468 57.4133 467.45 58.7315 466.351 59.8301C465.251 60.9286 463.909 61.4779 462.326 61.4779Z" fill="white"/>
<path d="M180.83 6.47577C142.632 114.807 49.5526 -31.5482 0 20.8263C41.7062 11.1594 157.434 145.661 180.83 6.47577Z" fill="url(#paint0_linear_136_19)"/>
<path d="M0 33.5599C28.7634 14.7273 78.2717 81.8602 123.879 73.9134C65.1715 100.28 36.29 38.2189 0 33.5599Z" fill="url(#paint1_linear_136_19)"/>
<path d="M48.2096 7.95998C86.4526 3.83666 136.807 80.4154 175.045 2.35246C126.57 64.7674 86.7231 -26.2503 48.2096 7.95998Z" fill="url(#paint2_linear_136_19)"/>
<defs>
<linearGradient id="paint0_linear_136_19" x1="0" y1="40.2068" x2="180.831" y2="40.2068" gradientUnits="userSpaceOnUse">
<stop offset="0.00710047" stop-color="#9BEAA1"/>
<stop offset="0.5219" stop-color="#77C99D"/>
<stop offset="0.9972" stop-color="#305677"/>
</linearGradient>
<linearGradient id="paint1_linear_136_19" x1="0" y1="40.2083" x2="180.829" y2="40.2083" gradientUnits="userSpaceOnUse">
<stop offset="0.00710047" stop-color="#9BEAA1"/>
<stop offset="0.5219" stop-color="#77C99D"/>
<stop offset="0.9972" stop-color="#305677"/>
</linearGradient>
<linearGradient id="paint2_linear_136_19" x1="48.2089" y1="18.797" x2="175.046" y2="18.797" gradientUnits="userSpaceOnUse">
<stop offset="0.00710047" stop-color="#9BEAA1"/>
<stop offset="0.5219" stop-color="#77C99D"/>
<stop offset="0.9972" stop-color="#305677"/>
</linearGradient>
</defs>
</svg>
