<svg width="342" height="59" viewBox="0 0 342 59" fill="none" xmlns="http://www.w3.org/2000/svg">
<path d="M141 47.2678V46.779L141.867 46.4857C142.509 46.2575 142.942 45.9479 143.167 45.5569C143.391 45.1658 143.504 44.6444 143.504 43.9926C143.536 42.0372 143.552 40.0655 143.552 38.0776C143.552 36.0896 143.552 34.1017 143.552 32.1137V30.1583C143.552 28.203 143.552 26.2476 143.552 24.2922C143.552 22.3043 143.536 20.3326 143.504 18.3773C143.504 17.7255 143.407 17.204 143.215 16.813C143.054 16.4219 142.669 16.1123 142.059 15.8842L141 15.4931V15.0043H164.302L164.639 23.119H164.157L161.413 17.9862C161.092 17.367 160.723 16.8781 160.306 16.5197C159.889 16.1612 159.311 15.9819 158.573 15.9819H150.821C150.789 18.2958 150.773 20.6585 150.773 23.0701C150.773 25.4818 150.773 27.8771 150.773 30.2561H155.78C156.519 30.2561 157.064 30.0932 157.417 29.7673C157.77 29.4414 158.107 28.9688 158.428 28.3496L159.439 26.492H159.921V35.0468H159.439L158.38 33.1892C158.059 32.6026 157.722 32.13 157.369 31.7715C157.048 31.413 156.519 31.2338 155.78 31.2338H150.773C150.773 33.5151 150.773 35.6985 150.773 37.7843C150.773 39.8374 150.789 41.858 150.821 43.8459C150.821 45.1169 151.431 45.9479 152.651 46.339L154.095 46.779V47.2678H141Z" fill="white"/>
<path d="M166.672 47.2678V46.779L167.25 46.5834C168.405 46.1923 168.983 45.3776 168.983 44.1392V17.9862C168.983 17.3344 168.854 16.8456 168.598 16.5197C168.341 16.1612 167.892 15.9005 167.25 15.7375L166.624 15.5909V15.102L175.434 13L176.012 13.44L175.819 20.2837V37.0021C175.819 38.2079 175.819 39.4137 175.819 40.6196C175.851 41.7928 175.867 42.966 175.867 44.1392C175.867 44.791 175.996 45.3287 176.253 45.7524C176.509 46.1435 176.943 46.4368 177.553 46.6323L178.178 46.779V47.2678H166.672Z" fill="white"/>
<path d="M188.829 48.0011C187.577 48.0011 186.422 47.7566 185.363 47.2678C184.336 46.779 183.517 45.9968 182.907 44.9214C182.33 43.8133 182.057 42.3631 182.089 40.5707L182.233 28.0074C182.233 27.2579 182.105 26.7202 181.848 26.3943C181.592 26.0684 181.19 25.8402 180.645 25.7099L180.067 25.5143V25.0255L188.685 23.3146L189.166 23.8034L188.926 30.745V42.526C188.926 43.5689 189.214 44.3348 189.792 44.8236C190.402 45.3124 191.156 45.5569 192.055 45.5569C192.954 45.5569 193.756 45.4265 194.462 45.1658C195.168 44.9051 195.874 44.514 196.58 43.9926L196.773 28.0563C196.773 27.3068 196.661 26.7853 196.436 26.492C196.211 26.1661 195.794 25.938 195.184 25.8077L194.703 25.661V25.1722L203.128 23.3146L203.61 23.8034L203.465 30.745V43.9926C203.465 44.7095 203.561 45.2635 203.754 45.6546C203.947 46.0457 204.364 46.3716 205.006 46.6323L205.487 46.779V47.2678L197.062 47.7566L196.629 44.8725C195.569 45.7524 194.414 46.502 193.162 47.1212C191.943 47.7078 190.498 48.0011 188.829 48.0011Z" fill="white"/>
<path d="M213.5 20.4793C212.409 20.4793 211.494 20.1371 210.756 19.4527C210.017 18.7357 209.648 17.8395 209.648 16.7641C209.648 15.656 210.017 14.7598 210.756 14.0755C211.494 13.3911 212.409 13.0489 213.5 13.0489C214.591 13.0489 215.506 13.3911 216.244 14.0755C217.014 14.7598 217.4 15.656 217.4 16.7641C217.4 17.8395 217.014 18.7357 216.244 19.4527C215.506 20.1371 214.591 20.4793 213.5 20.4793ZM206.374 59C204.545 59 203.229 58.6741 202.427 58.0223C201.624 57.4031 201.223 56.5884 201.223 55.5781C201.223 54.6656 201.544 53.9323 202.186 53.3783C202.828 52.8243 203.582 52.5473 204.449 52.5473C205.315 52.5473 206.102 52.7591 206.808 53.1828C207.514 53.639 208.06 54.3397 208.445 55.2848L208.926 56.3603C209.151 56.7187 209.408 56.8328 209.696 56.7024C210.017 56.6047 210.178 56.0995 210.178 55.187V28.8874C210.178 28.1378 210.001 27.6001 209.648 27.2742C209.327 26.9157 208.846 26.6713 208.204 26.5409L207.482 26.4431V25.9543L216.485 23.0701L217.063 23.559L216.918 30.5005V44.0903C216.918 46.2086 216.822 47.9848 216.629 49.4187C216.469 50.8526 216.164 52.0584 215.715 53.0361C215.297 54.0464 214.687 54.9752 213.885 55.8225C212.762 56.9632 211.542 57.7779 210.226 58.2667C208.91 58.7556 207.626 59 206.374 59Z" fill="white"/>
<path d="M233.059 48.0011C230.619 48.0011 228.501 47.4959 226.703 46.4857C224.906 45.4428 223.51 43.9763 222.515 42.0861C221.552 40.1959 221.071 37.9798 221.071 35.4378C221.071 32.8959 221.584 30.6961 222.611 28.8385C223.67 26.9809 225.099 25.5469 226.896 24.5367C228.726 23.5264 230.78 23.0213 233.059 23.0213C235.337 23.0213 237.375 23.5264 239.173 24.5367C240.97 25.5143 242.383 26.932 243.41 28.7896C244.469 30.6472 244.998 32.8633 244.998 35.4378C244.998 38.0124 244.501 40.2448 243.506 42.135C242.543 43.9926 241.163 45.4428 239.365 46.4857C237.6 47.4959 235.498 48.0011 233.059 48.0011ZM233.059 47.0234C234.182 47.0234 235.081 46.6975 235.755 46.0457C236.429 45.3939 236.91 44.237 237.199 42.5749C237.52 40.9129 237.68 38.5664 237.68 35.5356C237.68 32.4722 237.52 30.1095 237.199 28.4474C236.91 26.7853 236.429 25.6284 235.755 24.9766C235.081 24.3248 234.182 23.9989 233.059 23.9989C231.935 23.9989 231.02 24.3248 230.314 24.9766C229.64 25.6284 229.143 26.7853 228.822 28.4474C228.533 30.1095 228.389 32.4722 228.389 35.5356C228.389 38.5664 228.533 40.9129 228.822 42.5749C229.143 44.237 229.64 45.3939 230.314 46.0457C231.02 46.6975 231.935 47.0234 233.059 47.0234Z" fill="white"/>
<path d="M257.694 47.2678V46.779L258.657 46.3879C259.299 46.1598 259.716 45.8502 259.908 45.4591C260.133 45.068 260.245 44.5466 260.245 43.8948V18.3773C260.245 17.7255 260.149 17.204 259.957 16.813C259.764 16.4219 259.331 16.1123 258.657 15.8842L257.694 15.4931V15.0043H270.067V15.4931L269.104 15.8842C268.462 16.1123 268.029 16.4219 267.804 16.813C267.612 17.204 267.515 17.7255 267.515 18.3773V43.8948C267.515 44.5466 267.612 45.068 267.804 45.4591C268.029 45.8176 268.462 46.1272 269.104 46.3879L270.067 46.779V47.2678H257.694Z" fill="white"/>
<path d="M272.801 47.2678V46.779L274.389 46.2901C274.967 46.1272 275.384 45.8176 275.641 45.3613C275.898 44.8725 276.026 44.3022 276.026 43.6504V20.1371C275.673 19.3549 275.384 18.7683 275.16 18.3773C274.967 17.9862 274.742 17.6603 274.486 17.3996C274.229 17.1063 273.876 16.7478 273.427 16.3241L272.608 15.4931V15.0043H281.13L297.114 37.1488V18.7194C297.114 18.0677 297.001 17.4811 296.777 16.9596C296.584 16.4382 296.167 16.096 295.525 15.9331L293.936 15.4931V15.0043H300.821V15.4931L299.521 15.9331C298.943 16.1286 298.59 16.4708 298.462 16.9596C298.333 17.4485 298.269 18.0188 298.269 18.6706V47.4145H295.573L277.182 21.7503V43.6504C277.182 44.3022 277.278 44.8562 277.471 45.3124C277.663 45.7687 278.064 46.0946 278.674 46.2901L280.119 46.779V47.2678H272.801Z" fill="white"/>
<path d="M319.25 48.1477C316.137 48.1477 313.312 47.5122 310.776 46.2412C308.273 44.9377 306.283 43.0149 304.807 40.4729C303.33 37.9309 302.592 34.8186 302.592 31.136C302.592 28.3333 303.041 25.8728 303.94 23.7545C304.839 21.6362 306.058 19.8601 307.599 18.4261C309.172 16.9922 310.969 15.9168 312.991 15.1998C315.045 14.4828 317.212 14.1243 319.491 14.1243C321.32 14.1243 323.005 14.3362 324.546 14.7598C326.086 15.1835 327.531 15.7701 328.879 16.5197L329.071 22.5324H328.59L326.183 18.6217C325.862 18.0025 325.509 17.4485 325.123 16.9596C324.738 16.4382 324.257 16.0471 323.679 15.7864C323.198 15.5583 322.716 15.3953 322.235 15.2976C321.785 15.1672 321.208 15.102 320.502 15.102C318.64 15.102 316.939 15.6072 315.398 16.6174C313.89 17.6277 312.67 19.3061 311.739 21.6525C310.841 23.9663 310.391 27.1438 310.391 31.1849C310.391 35.1934 310.825 38.3709 311.691 40.7173C312.558 43.0312 313.729 44.6932 315.206 45.7035C316.714 46.6812 318.399 47.17 320.261 47.17C321.288 47.17 322.106 47.1049 322.716 46.9745C323.326 46.8115 323.936 46.5834 324.546 46.2901C325.156 46.0294 325.621 45.6546 325.942 45.1658C326.263 44.6444 326.552 44.0903 326.809 43.5037L328.927 38.7131H329.408L329.264 45.7035C327.916 46.4205 326.407 47.0071 324.738 47.4633C323.069 47.9196 321.24 48.1477 319.25 48.1477Z" fill="white"/>
<path d="M337.86 48.0011C336.704 48.0011 335.725 47.5937 334.923 46.779C334.12 45.9642 333.719 44.9865 333.719 43.8459C333.719 42.7053 334.12 41.7113 334.923 40.864C335.725 40.0166 336.704 39.593 337.86 39.593C339.015 39.593 339.994 40.0166 340.796 40.864C341.599 41.7113 342 42.7053 342 43.8459C342 44.9865 341.599 45.9642 340.796 46.779C339.994 47.5937 339.015 48.0011 337.86 48.0011Z" fill="white"/>
<path d="M132 4.6708C104.116 82.8076 36.1717 -22.7549 0 15.0215C30.4441 8.04895 114.921 105.062 132 4.6708Z" fill="white"/>
<path d="M0 24.2059C20.9963 10.6224 57.1357 59.0436 90.4275 53.3118C47.573 72.3293 26.4905 27.5663 0 24.2059Z" fill="white"/>
<path d="M35.1914 5.74132C63.1075 2.76728 99.8645 58.0015 127.777 1.69677C92.3917 46.715 63.305 -18.9336 35.1914 5.74132Z" fill="white"/>
</svg>
